<svg xmlns="http://www.w3.org/2000/svg" width="16" height="16" viewBox="0 0 16 16" fill="none">
  <g clip-path="url(#clip0_1205_62)">
    <path d="M15.3712 10.0329L14.2016 9.03291C14.257 8.69363 14.2855 8.3472 14.2855 8.00077C14.2855 7.65434 14.257 7.30791 14.2016 6.96863L15.3712 5.96863C15.4595 5.8931 15.5226 5.79251 15.5523 5.68023C15.5819 5.56795 15.5767 5.4493 15.5373 5.34006L15.5212 5.29363C15.1992 4.39367 14.7171 3.55941 14.098 2.83113L14.0659 2.79363C13.9908 2.70533 13.8907 2.64185 13.7788 2.61157C13.6669 2.58129 13.5485 2.58562 13.4391 2.62399L11.9873 3.14006C11.4516 2.70077 10.8534 2.35434 10.207 2.11149L9.92659 0.593628C9.90544 0.479418 9.85004 0.374347 9.76775 0.292374C9.68546 0.210401 9.58017 0.155408 9.46588 0.134699L9.41767 0.125771C8.48731 -0.0420864 7.50874 -0.0420864 6.57838 0.125771L6.53017 0.134699C6.41587 0.155408 6.31059 0.210401 6.2283 0.292374C6.146 0.374347 6.0906 0.479418 6.06945 0.593628L5.78731 2.11863C5.14604 2.36154 4.54886 2.70778 4.01945 3.14363L2.55695 2.62399C2.4476 2.58531 2.32908 2.58083 2.21712 2.61113C2.10516 2.64143 2.00508 2.70508 1.93017 2.79363L1.89802 2.83113C1.27971 3.55992 0.797622 4.39405 0.474808 5.29363L0.458737 5.34006C0.37838 5.56327 0.444451 5.81327 0.624808 5.96863L1.80874 6.97934C1.75338 7.31506 1.72659 7.65791 1.72659 7.99899C1.72659 8.34184 1.75338 8.6847 1.80874 9.01863L0.624808 10.0293C0.536586 10.1049 0.473445 10.2055 0.44378 10.3177C0.414115 10.43 0.419331 10.5487 0.458737 10.6579L0.474808 10.7043C0.798023 11.6043 1.27659 12.4347 1.89802 13.1668L1.93017 13.2043C2.00526 13.2926 2.10535 13.3561 2.21724 13.3864C2.32913 13.4167 2.44757 13.4124 2.55695 13.374L4.01945 12.8543C4.55159 13.2918 5.14624 13.6383 5.78731 13.8793L6.06945 15.4043C6.0906 15.5186 6.146 15.6236 6.2283 15.7056C6.31059 15.7876 6.41587 15.8426 6.53017 15.8633L6.57838 15.8722C7.51728 16.041 8.47876 16.041 9.41767 15.8722L9.46588 15.8633C9.58017 15.8426 9.68546 15.7876 9.76775 15.7056C9.85004 15.6236 9.90544 15.5186 9.92659 15.4043L10.207 13.8865C10.8531 13.6443 11.4547 13.2967 11.9873 12.8579L13.4391 13.374C13.5484 13.4127 13.667 13.4171 13.7789 13.3868C13.8909 13.3565 13.991 13.2929 14.0659 13.2043L14.098 13.1668C14.7194 12.4329 15.198 11.6043 15.5212 10.7043L15.5373 10.6579C15.6177 10.4383 15.5516 10.1883 15.3712 10.0329ZM12.9337 7.17934C12.9784 7.44899 13.0016 7.72577 13.0016 8.00256C13.0016 8.27934 12.9784 8.55613 12.9337 8.82577L12.8159 9.54184L14.1498 10.6829C13.9476 11.1488 13.6923 11.5898 13.3891 11.9972L11.732 11.4097L11.1712 11.8704C10.7444 12.2204 10.2695 12.4954 9.75516 12.6883L9.07481 12.9436L8.75516 14.6758C8.25083 14.7329 7.74165 14.7329 7.23731 14.6758L6.91767 12.9401L6.24267 12.6811C5.73374 12.4883 5.26052 12.2133 4.83731 11.8651L4.27659 11.4026L2.60874 11.9954C2.30517 11.5865 2.05159 11.1454 1.84802 10.6811L3.19624 9.52934L3.08017 8.81506C3.03731 8.54899 3.01409 8.27398 3.01409 8.00256C3.01409 7.72934 3.03552 7.45613 3.08017 7.19006L3.19624 6.47577L1.84802 5.32399C2.04981 4.85791 2.30517 4.41863 2.60874 4.0097L4.27659 4.60256L4.83731 4.14006C5.26052 3.79184 5.73374 3.51684 6.24267 3.32399L6.91945 3.06863L7.23909 1.33291C7.74088 1.27577 8.25338 1.27577 8.75695 1.33291L9.07659 3.06506L9.75695 3.32041C10.2695 3.51327 10.7462 3.78827 11.173 4.13827L11.7337 4.59899L13.3909 4.01149C13.6945 4.42041 13.948 4.86149 14.1516 5.32577L12.8177 6.46684L12.9337 7.17934ZM7.99981 4.68113C6.26409 4.68113 4.85695 6.08827 4.85695 7.82399C4.85695 9.5597 6.26409 10.9668 7.99981 10.9668C9.73552 10.9668 11.1427 9.5597 11.1427 7.82399C11.1427 6.08827 9.73552 4.68113 7.99981 4.68113ZM9.41409 9.23827C9.2286 9.4243 9.00815 9.57182 8.76543 9.67234C8.52271 9.77286 8.26252 9.8244 7.99981 9.82399C7.46588 9.82399 6.96409 9.61506 6.58552 9.23827C6.39949 9.05278 6.25198 8.83233 6.15146 8.58961C6.05094 8.34689 5.9994 8.08669 5.99981 7.82399C5.99981 7.29006 6.20874 6.78827 6.58552 6.4097C6.96409 6.03113 7.46588 5.82399 7.99981 5.82399C8.53374 5.82399 9.03552 6.03113 9.41409 6.4097C9.60012 6.5952 9.74764 6.81564 9.84816 7.05836C9.94868 7.30108 10.0002 7.56128 9.99981 7.82399C9.99981 8.35791 9.79088 8.8597 9.41409 9.23827Z" fill="#BFBFBF"/>
  </g>
  <defs>
    <clipPath id="clip0_1205_62">
      <rect width="16" height="16" fill="white"/>
    </clipPath>
  </defs>
</svg>