<svg id="id" xmlns="http://www.w3.org/2000/svg" width="13" height="13" viewBox="0 0 13 13" fill="currentColor">
  <g clip-path="url(#clip0_6_6150)">
    <path d="M10.6191 0.200195H3.44057C3.38164 0.200195 3.33343 0.24841 3.33343 0.307338V1.05734C3.33343 1.11627 3.38164 1.16448 3.44057 1.16448H10.0834V10.3788C10.0834 10.4377 10.1316 10.4859 10.1906 10.4859H10.9406C10.9995 10.4859 11.0477 10.4377 11.0477 10.3788V0.628767C11.0477 0.391713 10.8562 0.200195 10.6191 0.200195ZM8.90486 1.91448H2.04771C1.81066 1.91448 1.61914 2.106 1.61914 2.34305V9.45064C1.61914 9.56448 1.66468 9.67296 1.74503 9.75332L4.06602 12.0743C4.09548 12.1038 4.12896 12.1279 4.16512 12.148V12.1734H4.22137C4.26825 12.1908 4.3178 12.2002 4.36869 12.2002H8.90486C9.14191 12.2002 9.33343 12.0087 9.33343 11.7716V2.34305C9.33343 2.106 9.14191 1.91448 8.90486 1.91448ZM4.16378 10.81L3.01066 9.65555H4.16378V10.81ZM8.36914 11.2359H5.02093V9.33412C5.02093 9.03814 4.78119 8.79841 4.48521 8.79841H2.58343V2.87877H8.36914V11.2359Z" fill="currentColor"/>
  </g>
  <defs>
    <clipPath id="clip0_6_6150">
      <rect width="12" height="12" fill="currentColor" transform="translate(0.333496 0.200195)"/>
    </clipPath>
  </defs>
</svg>