<svg id="id" width="14" height="14" viewBox="0 0 14 14" fill="none" xmlns="http://www.w3.org/2000/svg">
<path d="M6.90156 9.32544C6.91326 9.34038 6.92819 9.35246 6.94525 9.36077C6.96231 9.36908 6.98103 9.3734 7 9.3734C7.01897 9.3734 7.03769 9.36908 7.05475 9.36077C7.0718 9.35246 7.08674 9.34038 7.09844 9.32544L8.84844 7.11138C8.9125 7.03013 8.85469 6.90981 8.75 6.90981H7.59219V1.62231C7.59219 1.55356 7.53594 1.49731 7.46719 1.49731H6.52969C6.46094 1.49731 6.40469 1.55356 6.40469 1.62231V6.90825H5.25C5.14531 6.90825 5.0875 7.02857 5.15156 7.10982L6.90156 9.32544ZM12.7188 8.77857H11.7812C11.7125 8.77857 11.6562 8.83482 11.6562 8.90357V11.3098H2.34375V8.90357C2.34375 8.83482 2.2875 8.77857 2.21875 8.77857H1.28125C1.2125 8.77857 1.15625 8.83482 1.15625 8.90357V11.9973C1.15625 12.2739 1.37969 12.4973 1.65625 12.4973H12.3438C12.6203 12.4973 12.8438 12.2739 12.8438 11.9973V8.90357C12.8438 8.83482 12.7875 8.77857 12.7188 8.77857Z" fill="currentColor" fill-opacity="0.85"/>
</svg>
