<svg id="id" xmlns="http://www.w3.org/2000/svg" width="20" height="21" viewBox="0 0 20 21" fill="currentColor">
<path d="M4.32352 15.5552C4.36816 15.5552 4.41281 15.5508 4.45745 15.5441L8.21191 14.8856C8.25656 14.8767 8.29897 14.8566 8.33022 14.8231L17.7923 5.36105C17.813 5.3404 17.8294 5.31587 17.8406 5.28887C17.8518 5.26186 17.8575 5.23292 17.8575 5.20368C17.8575 5.17445 17.8518 5.1455 17.8406 5.1185C17.8294 5.0915 17.813 5.06697 17.7923 5.04632L14.0825 1.33426C14.04 1.29185 13.9842 1.26953 13.924 1.26953C13.8637 1.26953 13.8079 1.29185 13.7655 1.33426L4.30343 10.7963C4.26995 10.8298 4.24986 10.87 4.24093 10.9146L3.58245 14.6691C3.56074 14.7887 3.56849 14.9117 3.60505 15.0276C3.64162 15.1435 3.70587 15.2488 3.79227 15.3343C3.93959 15.4771 4.12486 15.5552 4.32352 15.5552ZM5.82799 11.6624L13.924 3.56864L15.5601 5.2048L7.46415 13.2985L5.47977 13.649L5.82799 11.6624ZM18.2141 17.4302H1.78557C1.39049 17.4302 1.07129 17.7494 1.07129 18.1445V18.9481C1.07129 19.0463 1.15165 19.1267 1.24986 19.1267H18.7499C18.8481 19.1267 18.9284 19.0463 18.9284 18.9481V18.1445C18.9284 17.7494 18.6092 17.4302 18.2141 17.4302Z" fill="currentColor" />
</svg>
