<svg id="id" xmlns="http://www.w3.org/2000/svg" width="20" height="21" viewBox="0 0 20 21" fill="currentColor">
<path d="M19.6028 9.6257C17.4867 5.16811 14.2881 2.9248 10.0001 2.9248C5.70995 2.9248 2.51352 5.16811 0.39745 9.62793C0.312574 9.80765 0.268555 10.0039 0.268555 10.2027C0.268555 10.4015 0.312574 10.5978 0.39745 10.7775C2.51352 15.2351 5.71218 17.4784 10.0001 17.4784C14.2903 17.4784 17.4867 15.2351 19.6028 10.7753C19.7747 10.4136 19.7747 9.994 19.6028 9.6257ZM10.0001 15.8712C6.39968 15.8712 3.76352 14.0453 1.90415 10.2016C3.76352 6.35784 6.39968 4.53195 10.0001 4.53195C13.6006 4.53195 16.2367 6.35784 18.0961 10.2016C16.239 14.0453 13.6028 15.8712 10.0001 15.8712ZM9.91084 6.27302C7.7412 6.27302 5.98227 8.03195 5.98227 10.2016C5.98227 12.3712 7.7412 14.1302 9.91084 14.1302C12.0805 14.1302 13.8394 12.3712 13.8394 10.2016C13.8394 8.03195 12.0805 6.27302 9.91084 6.27302ZM9.91084 12.7016C8.52915 12.7016 7.41084 11.5833 7.41084 10.2016C7.41084 8.81989 8.52915 7.70159 9.91084 7.70159C11.2925 7.70159 12.4108 8.81989 12.4108 10.2016C12.4108 11.5833 11.2925 12.7016 9.91084 12.7016Z" fill="currentColor"/>
</svg>