<svg fill="currentColor" id="id" xmlns="http://www.w3.org/2000/svg" width="16" height="16" viewBox="0 0 16 16" >
  <path d="M14.7194 12.38H13.7587C13.6837 12.38 13.6212 12.4425 13.6212 12.5175V13.6211H2.37651V2.37468H13.6229V3.47825C13.6229 3.55325 13.6854 3.61575 13.7604 3.61575H14.7212C14.7962 3.61575 14.8587 3.55503 14.8587 3.47825V1.68896C14.8587 1.38539 14.614 1.14075 14.3104 1.14075H1.69079C1.38722 1.14075 1.14258 1.38539 1.14258 1.68896V14.3068C1.14258 14.6104 1.38722 14.855 1.69079 14.855H14.3087C14.6122 14.855 14.8569 14.6104 14.8569 14.3068V12.5175C14.8569 12.4407 14.7944 12.38 14.7194 12.38ZM14.964 7.35503H9.35687V5.99789C9.35687 5.87825 9.21758 5.81039 9.12472 5.88539L6.59079 7.88539C6.57372 7.89875 6.55991 7.91583 6.55041 7.93532C6.54092 7.95481 6.53598 7.97621 6.53598 7.99789C6.53598 8.01957 6.54092 8.04097 6.55041 8.06046C6.55991 8.07995 6.57372 8.09703 6.59079 8.11039L9.12472 10.1104C9.21937 10.1854 9.35687 10.1175 9.35687 9.99789V8.64075H14.964C15.0426 8.64075 15.1069 8.57646 15.1069 8.49789V7.49789C15.1069 7.41932 15.0426 7.35503 14.964 7.35503Z" fill="currentColor"/>
</svg>