<svg id="id" xmlns="http://www.w3.org/2000/svg" width="16" height="16" viewBox="0 0 16 16" fill="currentColor">
  <path d="M14.9998 1.71106H0.999791C0.921219 1.71106 0.856934 1.77535 0.856934 1.85392V2.99677C0.856934 3.07535 0.921219 3.13963 0.999791 3.13963H14.9998C15.0784 3.13963 15.1426 3.07535 15.1426 2.99677V1.85392C15.1426 1.77535 15.0784 1.71106 14.9998 1.71106ZM14.9998 12.8539H0.999791C0.921219 12.8539 0.856934 12.9182 0.856934 12.9968V14.1396C0.856934 14.2182 0.921219 14.2825 0.999791 14.2825H14.9998C15.0784 14.2825 15.1426 14.2182 15.1426 14.1396V12.9968C15.1426 12.9182 15.0784 12.8539 14.9998 12.8539ZM14.9998 7.28249H0.999791C0.921219 7.28249 0.856934 7.34677 0.856934 7.42535V8.5682C0.856934 8.64677 0.921219 8.71106 0.999791 8.71106H14.9998C15.0784 8.71106 15.1426 8.64677 15.1426 8.5682V7.42535C15.1426 7.34677 15.0784 7.28249 14.9998 7.28249Z" fill="currentColor"/>
</svg>
