<svg id="id" xmlns="http://www.w3.org/2000/svg" width="16" height="16" viewBox="0 0 16 16" fill="currentColor">
  <g clip-path="url(#clip0_1699_5234)">
    <path d="M15.1003 14.1182L10.4628 9.48068C11.1824 8.55032 11.5717 7.41282 11.5717 6.2164C11.5717 4.78425 11.0128 3.4414 10.0021 2.4289C8.99135 1.4164 7.64492 0.859253 6.21456 0.859253C4.78421 0.859253 3.43778 1.41818 2.42706 2.4289C1.41456 3.43961 0.857422 4.78425 0.857422 6.2164C0.857422 7.64675 1.41635 8.99318 2.42706 10.0039C3.43778 11.0164 4.78242 11.5735 6.21456 11.5735C7.41099 11.5735 8.54671 11.1843 9.47707 10.4664L14.1146 15.1021C14.1282 15.1157 14.1443 15.1265 14.1621 15.1339C14.1799 15.1412 14.1989 15.145 14.2181 15.145C14.2374 15.145 14.2564 15.1412 14.2742 15.1339C14.292 15.1265 14.3081 15.1157 14.3217 15.1021L15.1003 14.3253C15.1139 14.3117 15.1247 14.2956 15.132 14.2778C15.1394 14.26 15.1432 14.241 15.1432 14.2218C15.1432 14.2025 15.1394 14.1835 15.132 14.1657C15.1247 14.1479 15.1139 14.1318 15.1003 14.1182ZM9.04314 9.04497C8.28599 9.80033 7.28242 10.2164 6.21456 10.2164C5.14671 10.2164 4.14314 9.80033 3.38599 9.04497C2.63064 8.28783 2.21456 7.28425 2.21456 6.2164C2.21456 5.14854 2.63064 4.14318 3.38599 3.38782C4.14314 2.63247 5.14671 2.2164 6.21456 2.2164C7.28242 2.2164 8.28778 2.63068 9.04314 3.38782C9.79849 4.14497 10.2146 5.14854 10.2146 6.2164C10.2146 7.28425 9.79849 8.28961 9.04314 9.04497Z" fill="currentColor" />
  </g>
  <defs>
    <clipPath id="clip0_1699_5234">
      <rect width="16" height="16" fill="currentColor"/>
    </clipPath>
  </defs>
</svg>