<svg id="id" xmlns="http://www.w3.org/2000/svg" width="20" height="21" viewBox="0 0 20 21" fill="currentColor">
  <path d="M6.6068 2.87667H6.42822C6.52644 2.87667 6.6068 2.79632 6.6068 2.6981V2.87667H13.3925V2.6981C13.3925 2.79632 13.4729 2.87667 13.5711 2.87667H13.3925V4.48382H14.9997V2.6981C14.9997 1.91016 14.359 1.26953 13.5711 1.26953H6.42822C5.64028 1.26953 4.99965 1.91016 4.99965 2.6981V4.48382H6.6068V2.87667ZM17.8568 4.48382H2.14251C1.74742 4.48382 1.42822 4.80301 1.42822 5.1981V5.91239C1.42822 6.0106 1.50858 6.09096 1.60679 6.09096H2.95501L3.50635 17.7651C3.54206 18.5262 4.17153 19.1267 4.93269 19.1267H15.0666C15.83 19.1267 16.4572 18.5285 16.493 17.7651L17.0443 6.09096H18.3925C18.4907 6.09096 18.5711 6.0106 18.5711 5.91239V5.1981C18.5711 4.80301 18.2519 4.48382 17.8568 4.48382ZM14.8947 17.5195H5.10456L4.56438 6.09096H15.4349L14.8947 17.5195Z" fill="currentColor" />
</svg>