<svg xmlns="http://www.w3.org/2000/svg" width="68" height="16" viewBox="0 0 68 16" fill="none">
  <path d="M12.7002 8.87423L9.85047 0.59729H8.45593L5.69716 8.87423L2.99902 0.59729H0.57373L4.78767 12.0812H6.60664L7.97087 8.50773L9.18351 4.84267L10.3658 8.4772L11.7907 12.0812H13.6097L17.7023 0.59729H15.3074L12.7002 8.87423Z" fill="white"/>
  <path d="M18.521 1.72757C18.521 3.28522 20.8553 3.28522 20.8553 1.72757C20.8553 0.169913 18.521 0.169913 18.521 1.72757Z" fill="white"/>
  <path d="M20.7035 3.95715H18.7026V12.0814H20.7035V3.95715Z" fill="white"/>
  <path d="M24.4931 3.95715H22.4922V12.0814H24.4931V3.95715Z" fill="white"/>
  <path d="M22.3105 1.72757C22.3105 3.28522 24.6449 3.28522 24.6449 1.72757C24.6449 0.169913 22.3105 0.169913 22.3105 1.72757Z" fill="white"/>
  <path d="M30.0715 10.4017C28.8285 10.4017 27.7978 9.57705 27.7978 8.04994C27.7978 6.645 28.7679 5.66763 30.1018 5.66763C30.6475 5.66763 31.2538 5.88146 31.7086 6.30905L32.9515 4.99572C32.0724 4.14054 31.1932 3.80457 30.0412 3.80457C27.7068 3.80457 25.7666 5.20951 25.7666 8.08048C25.7666 10.9514 27.7068 12.3564 30.0412 12.3564C31.2235 12.3564 32.1936 11.9899 33.1334 11.0736L31.7995 9.7603C31.3145 10.249 30.7081 10.4017 30.0715 10.4017Z" fill="white"/>
  <path d="M40.3181 5.11788C39.8633 4.32378 38.8326 3.80454 37.7715 3.80454C35.4372 3.774 33.5879 5.24004 33.5879 8.04992C33.5879 10.8903 35.3462 12.3564 37.7109 12.3564C38.6204 12.3258 39.8633 11.8677 40.3181 10.9209L40.409 12.1121H42.2886V4.01836H40.3787L40.3181 5.11788ZM37.9534 10.4933C36.6195 10.4933 35.5888 9.57704 35.5888 8.01939C35.5888 6.49228 36.6498 5.57601 37.9534 5.57601C41.076 5.60655 41.076 10.4933 37.9534 10.4933Z" fill="white"/>
  <path d="M53.1418 3.89601C52.1111 3.89601 51.1713 4.23196 50.4437 5.36202C49.989 4.23196 49.0189 3.86548 48.0791 3.86548C47.3211 3.86548 46.3813 4.17089 45.9569 4.99553L45.8053 4.01819H43.9561V12.1119H45.9569V7.74433C45.9569 6.67535 46.5936 5.69801 47.6546 5.69801C48.746 5.69801 49.2917 6.67535 49.2917 7.74433V12.0813H51.2926V7.74433C51.2926 6.67535 51.9595 5.72855 53.0206 5.72855C54.0816 5.72855 54.5364 6.64482 54.5364 7.68326V12.0508H56.5373V7.68326C56.5373 5.30096 55.4156 3.89601 53.1418 3.89601Z" fill="white"/>
  <path d="M62.9947 3.83484C62.0852 3.83484 60.9939 4.23191 60.3875 5.11763L60.2663 3.98755H58.417V15.4409H60.4179V11.1039C60.9939 11.9896 62.2368 12.2645 63.0857 12.2645C65.6626 12.2645 67.148 10.4014 67.148 8.01915C67.1177 5.66739 65.4807 3.83484 62.9947 3.83484ZM62.8432 10.3403C61.4789 10.3403 60.5694 9.30191 60.5694 8.04968C60.5694 6.79745 61.4183 5.75901 62.8432 5.75901C64.268 5.75901 65.1169 6.79745 65.1169 8.04968C65.1169 9.30191 64.2074 10.3403 62.8432 10.3403Z" fill="white"/>
</svg>