<svg xmlns="http://www.w3.org/2000/svg" width="47" height="24" viewBox="0 0 47 24" fill="none">
<path d="M40.1634 11.379C39.0817 10.2893 37.3002 10.2893 36.2186 11.379L31.5103 16.1224C31.3195 16.3147 31.0013 16.3147 30.8105 16.1224L27.5656 12.8533C27.3747 12.661 27.3747 12.3405 27.5656 12.1482L34.0872 5.57797C35.1688 4.48828 35.1688 2.69352 34.0872 1.60383C33.0055 0.514137 31.224 0.514137 30.1424 1.60383L23.6208 8.17404C23.4299 8.36634 23.1118 8.36634 22.9209 8.17404L16.3994 1.60383C15.3177 0.514137 13.5362 0.514137 12.4546 1.60383C11.373 2.69352 11.373 4.48828 12.4546 5.57797L18.9762 12.1482C19.1671 12.3405 19.1671 12.661 18.9762 12.8533L15.7313 16.1224C15.5404 16.3147 15.2223 16.3147 15.0314 16.1224L4.75598 5.7703C3.67435 4.68061 1.89285 4.68061 0.81122 5.7703C-0.270407 6.86 -0.270407 8.65475 0.81122 9.74445L11.4048 20.417L13.3454 22.3721C14.4588 23.4938 16.2403 23.4938 17.3219 22.3721L22.8573 16.7954C23.0482 16.6031 23.3663 16.6031 23.5572 16.7954L27.7883 21.058L29.0926 22.3721C30.206 23.4938 31.9875 23.4938 33.0692 22.3721L35.3597 20.0645L40.1952 15.1929C41.404 14.1353 41.245 12.5008 40.1634 11.379Z" fill="#FF6D03"/>
<path d="M45.7623 5.77012C44.6807 4.68043 42.8992 4.68043 41.8176 5.77012C40.7359 6.85981 40.7359 8.65457 41.8176 9.74426C42.8992 10.834 44.6807 10.834 45.7623 9.74426C46.8439 8.65457 46.8439 6.85981 45.7623 5.77012Z" fill="#FF6D03"/>
</svg>